<svg width="86" height="97" viewBox="0 0 86 97" fill="none" xmlns="http://www.w3.org/2000/svg">
<path d="M24.2204 40.882L22.6885 40.8642C17.8898 40.8077 13.3748 38.9233 9.97363 35.5556C6.57543 32.1849 4.65835 27.6996 4.57772 22.926L4.55383 21.4012L6.08571 21.419C10.8844 21.4755 15.3994 23.36 18.8006 26.7277C22.2018 30.0953 24.1188 34.5806 24.1965 39.3572L24.2204 40.882ZM7.66835 24.4865C8.08043 27.875 9.61529 31.0138 12.0758 33.4541C14.5394 35.8944 17.6987 37.4044 21.1058 37.7997C20.6938 34.4082 19.1589 31.2724 16.6983 28.8321C14.2378 26.3918 11.0755 24.8788 7.66835 24.4865Z" fill="#FFDD24"/>
<path d="M22.4019 40.882L22.4287 39.3572C22.5094 34.5806 24.4264 30.0953 27.8246 26.7277C31.2258 23.36 35.7408 21.4725 40.5395 21.419L42.0714 21.4012L42.0445 22.926C41.9639 27.7026 40.0498 32.1879 36.6486 35.5556C33.2474 38.9233 28.7324 40.8107 23.9337 40.8642L22.4019 40.882ZM38.9569 24.4865C35.5497 24.8818 32.3904 26.3918 29.9269 28.8321C27.4633 31.2724 25.9314 34.4082 25.5194 37.7997C28.9265 37.4044 32.0888 35.8944 34.5494 33.4541C37.0099 31.0138 38.5418 27.875 38.9569 24.4865Z" fill="#FFDD24"/>
<path d="M63.5982 40.882L62.0664 40.8642C57.2677 40.8077 52.7527 38.9233 49.3515 35.5556C45.9503 32.1879 44.0332 27.7026 43.9556 22.926L43.9287 21.4012L45.4606 21.419C50.2593 21.4755 54.7743 23.36 58.1755 26.7277C61.5766 30.0953 63.4937 34.5806 63.5714 39.3572L63.5982 40.882ZM47.0432 24.4865C47.4553 27.875 48.9902 31.0138 51.4507 33.4541C53.9143 35.8944 57.0736 37.4044 60.4807 37.7997C60.0686 34.4082 58.5338 31.2724 56.0702 28.8321C53.6067 26.3918 50.4504 24.8788 47.0432 24.4865Z" fill="#FFDD24"/>
<path d="M61.7797 40.882L61.8065 39.3572C61.8872 34.5806 63.8042 30.0953 67.2024 26.7277C70.6036 23.36 75.1186 21.4725 79.9173 21.419L81.4492 21.4012L81.4223 22.926C81.3417 27.7026 79.4246 32.1879 76.0264 35.5556C72.6252 38.9233 68.1102 40.8107 63.3115 40.8642L61.7797 40.882ZM78.3317 24.4865C74.9245 24.8818 71.7652 26.3918 69.3017 28.8321C66.8381 31.2724 65.3063 34.4082 64.8912 37.7997C68.2983 37.4044 71.4606 35.8944 73.9212 33.4541C76.3818 31.0138 77.9196 27.875 78.3317 24.4865Z" fill="#FFDD24"/>
<path d="M24.2203 23.5233L22.6884 23.5055C17.8897 23.449 13.3747 21.5645 9.97356 18.1968C6.57537 14.8262 4.65828 10.3409 4.57766 5.56431L4.55078 4.03949L6.08266 4.05732C10.8813 4.1138 15.3963 5.99828 18.7975 9.36596C22.1987 12.7336 24.1158 17.2189 24.1934 21.9955L24.2203 23.5233ZM7.66828 7.1248C8.08036 10.5133 9.61523 13.6521 12.0758 16.0924C14.5393 18.5327 17.6986 20.0427 21.1058 20.438C20.6937 17.0465 19.1588 13.9107 16.6983 11.4704C14.2377 9.03008 11.0754 7.52012 7.66828 7.1248Z" fill="#FFDD24"/>
<path d="M22.4019 23.5234L22.4287 21.9986C22.5094 17.222 24.4264 12.7368 27.8246 9.36907C31.2258 6.00139 35.7408 4.11394 40.5395 4.06044L42.0714 4.0426L42.0445 5.56742C41.9639 10.344 40.0498 14.8293 36.6486 18.197C33.2474 21.5647 28.7324 23.4521 23.9337 23.5056L22.4019 23.5234ZM38.9569 7.12494C35.5497 7.52026 32.3904 9.03022 29.9269 11.4705C27.4633 13.9108 25.9285 17.0467 25.5164 20.4381C28.9235 20.0428 32.0858 18.5329 34.5464 16.0926C37.0099 13.6552 38.5418 10.5164 38.9569 7.12494Z" fill="#FFDD24"/>
<path d="M63.5982 23.5234L62.0664 23.5056C57.2677 23.4491 52.7527 21.5647 49.3515 18.197C45.9503 14.8293 44.0332 10.344 43.9556 5.56742L43.9287 4.0426L45.4606 4.06044C50.2593 4.11691 54.7743 6.00139 58.1755 9.36907C61.5766 12.7368 63.4937 17.222 63.5714 21.9986L63.5982 23.5234ZM47.0432 7.12494C47.4553 10.5134 48.9902 13.6522 51.4507 16.0926C53.9143 18.5329 57.0736 20.0428 60.4807 20.4381C60.0686 17.0467 58.5338 13.9108 56.0702 11.4705C53.6067 9.03022 50.4504 7.52026 47.0432 7.12494Z" fill="#FFDD24"/>
<path d="M61.7797 23.5234L61.8065 21.9986C61.8872 17.222 63.8042 12.7368 67.2024 9.36907C70.6036 6.00139 75.1186 4.11394 79.9173 4.06044L81.4492 4.0426L81.4223 5.56742C81.3417 10.344 79.4246 14.8293 76.0264 18.197C72.6252 21.5647 68.1102 23.4521 63.3115 23.5056L61.7797 23.5234ZM78.3317 7.12494C74.9245 7.52026 71.7652 9.03022 69.3017 11.4705C66.8381 13.9108 65.3063 17.0467 64.8912 20.4381C68.2983 20.0428 71.4606 18.5329 73.9212 16.0926C76.3818 13.6522 77.9196 10.5164 78.3317 7.12494Z" fill="#FFDD24"/>
<path d="M24.2203 58.2406L22.6884 58.2227C17.8897 58.1663 13.3747 56.2818 9.97356 52.9111C6.57238 49.5435 4.6553 45.0582 4.57766 40.2816L4.55078 38.7568L6.08266 38.7746C10.8813 38.8311 15.3963 40.7156 18.7975 44.0832C22.1987 47.4509 24.1158 51.9362 24.1934 56.7128L24.2203 58.2406ZM7.66828 41.8451C8.08036 45.2335 9.61523 48.3723 12.0758 50.8127C14.5393 53.253 17.6986 54.7629 21.1058 55.1582C20.6937 51.7698 19.1588 48.6309 16.6983 46.1906C14.2347 43.7503 11.0754 42.2374 7.66828 41.8451Z" fill="#FFDD24"/>
<path d="M22.4019 58.2407L22.4287 56.7159C22.5094 51.9393 24.4264 47.454 27.8246 44.0864C31.2258 40.7187 35.7408 38.8312 40.5395 38.7777L42.0714 38.7599L42.0445 40.2847C41.9639 45.0613 40.0498 49.5466 36.6486 52.9143C33.2474 56.2819 28.7324 58.1694 23.9337 58.2259L22.4019 58.2407ZM29.9269 46.1878C27.4633 48.6281 25.9314 51.7669 25.5194 55.1554C28.9265 54.7601 32.0888 53.2501 34.5494 50.8098C37.0129 48.3695 38.5448 45.2337 38.9569 41.8422C35.5467 42.2376 32.3874 43.7505 29.9269 46.1878Z" fill="#FFDD24"/>
<path d="M63.5982 58.2406L62.0664 58.2227C57.2677 58.1663 52.7527 56.2818 49.3515 52.9111C45.9503 49.5435 44.0332 45.0582 43.9556 40.2816L43.9287 38.7568L45.4606 38.7746C50.2593 38.8311 54.7743 40.7156 58.1755 44.0832C61.5766 47.4509 63.4937 51.9362 63.5714 56.7128L63.5982 58.2406ZM47.0432 41.8451C47.4553 45.2335 48.9902 48.3723 51.4507 50.8127C53.9113 53.253 57.0736 54.7629 60.4807 55.1582C60.0686 51.7698 58.5338 48.6309 56.0702 46.1906C53.6127 43.7503 50.4504 42.2374 47.0432 41.8451Z" fill="#FFDD24"/>
<path d="M61.7797 58.2407L61.8065 56.7159C61.8872 51.9393 63.8042 47.454 67.2024 44.0864C70.6036 40.7187 75.1186 38.8312 79.9173 38.7777L81.4492 38.7599L81.4223 40.2847C81.3417 45.0613 79.4246 49.5466 76.0264 52.9143C72.6252 56.2819 68.1102 58.1694 63.3115 58.2259L61.7797 58.2407ZM69.3017 46.1878C66.8381 48.6281 65.3063 51.7669 64.8912 55.1554C68.2983 54.7601 71.4606 53.2501 73.9212 50.8098C76.3847 48.3695 77.9166 45.2337 78.3287 41.8422C74.9245 42.2376 71.7652 43.7505 69.3017 46.1878Z" fill="#FFDD24"/>
<path d="M24.2203 75.5988L22.6884 75.581C17.8897 75.5245 13.3747 73.64 9.97356 70.2694C6.57238 66.9017 4.6553 62.4164 4.57766 57.6398L4.55078 56.115L6.08266 56.1328C10.8813 56.1893 15.3963 58.0738 18.7975 61.4415C22.1987 64.8091 24.1158 69.2944 24.1934 74.071L24.2203 75.5988ZM7.66828 59.2033C8.08036 62.5918 9.61523 65.7306 12.0758 68.1709C14.5393 70.6112 17.6986 72.1212 21.1058 72.5165C20.6937 69.128 19.1588 65.9892 16.6983 63.5489C14.2347 61.1086 11.0754 59.5986 7.66828 59.2033Z" fill="#FFDD24"/>
<path d="M22.4019 75.5994L22.4287 74.0746C22.5094 69.298 24.4264 64.8127 27.8246 61.445C31.2258 58.0773 35.7408 56.1899 40.5395 56.1364L42.0714 56.1185L42.0445 57.6433C41.9639 62.4199 40.0498 66.9052 36.6486 70.2729C33.2474 73.6406 28.7324 75.528 23.9337 75.5845L22.4019 75.5994ZM29.9269 63.5465C27.4633 65.9868 25.9314 69.1256 25.5194 72.5141C28.9265 72.1187 32.0888 70.6088 34.5494 68.1685C37.0129 65.7282 38.5448 62.5923 38.9569 59.2009C35.5467 59.5992 32.3874 61.1091 29.9269 63.5465Z" fill="#FFDD24"/>
<path d="M63.5982 75.5988L62.0664 75.581C57.2677 75.5245 52.7527 73.64 49.3515 70.2694C45.9503 66.9017 44.0332 62.4164 43.9556 57.6398L43.9287 56.115L45.4606 56.1328C50.2593 56.1893 54.7743 58.0738 58.1755 61.4415C61.5766 64.8091 63.4937 69.2944 63.5714 74.071L63.5982 75.5988ZM47.0432 59.2033C47.4553 62.5918 48.9902 65.7306 51.4507 68.1709C53.9113 70.6112 57.0736 72.1212 60.4807 72.5165C60.0686 69.128 58.5338 65.9892 56.0702 63.5489C53.6127 61.1086 50.4504 59.5986 47.0432 59.2033Z" fill="#FFDD24"/>
<path d="M61.7797 75.5994L61.8065 74.0746C61.8872 69.298 63.8042 64.8127 67.2024 61.445C70.6036 58.0773 75.1186 56.1899 79.9173 56.1364L81.4492 56.1185L81.4223 57.6433C81.3417 62.4199 79.4246 66.9052 76.0264 70.2729C72.6252 73.6406 68.1102 75.528 63.3115 75.5845L61.7797 75.5994ZM69.3017 63.5465C66.8381 65.9868 65.3063 69.1256 64.8912 72.5141C68.2983 72.1187 71.4606 70.6088 73.9212 68.1685C76.3847 65.7282 77.9166 62.5923 78.3287 59.2009C74.9245 59.5992 71.7652 61.1091 69.3017 63.5465Z" fill="#FFDD24"/>
<path d="M24.2203 92.9603L22.6884 92.9425C17.8897 92.886 13.3747 91.0016 9.97356 87.6309C6.57238 84.2632 4.6553 79.7779 4.57766 75.0013L4.55078 73.4765L6.08266 73.4943C10.8813 73.5508 15.3963 75.4353 18.7975 78.803C22.1987 82.1707 24.1158 86.656 24.1934 91.4325L24.2203 92.9603ZM7.66828 76.5618C8.08036 79.9533 9.61523 83.0891 12.0758 85.5294C14.5393 87.9697 17.6986 89.4797 21.1058 89.875C20.6937 86.4836 19.1588 83.3477 16.6983 80.9074C14.2347 78.4671 11.0754 76.9571 7.66828 76.5618Z" fill="#FFDD24"/>
<path d="M22.4019 92.9604L22.4287 91.4356C22.5094 86.659 24.4264 82.1738 27.8246 78.8061C31.2258 75.4384 35.7408 73.551 40.5395 73.4974L42.0714 73.4796L42.0445 75.0044C41.9639 79.781 40.0498 84.2663 36.6486 87.634C33.2474 91.0017 28.7324 92.8891 23.9337 92.9456L22.4019 92.9604ZM38.9569 76.5619C35.5497 76.9573 32.3874 78.4672 29.9269 80.9075C27.4633 83.3478 25.9314 86.4837 25.5194 89.8751C28.9265 89.4798 32.0888 87.9699 34.5494 85.5295C37.0099 83.0892 38.5418 79.9534 38.9569 76.5619Z" fill="#FFDD24"/>
<path d="M63.5982 92.9603L62.0664 92.9425C57.2677 92.886 52.7527 91.0016 49.3515 87.6309C45.9503 84.2632 44.0332 79.7779 43.9556 75.0013L43.9287 73.4765L45.4606 73.4943C50.2593 73.5508 54.7743 75.4353 58.1755 78.803C61.5766 82.1707 63.4937 86.656 63.5714 91.4325L63.5982 92.9603ZM47.0432 76.5618C47.4553 79.9533 48.9902 83.0891 51.4507 85.5294C53.9143 87.9697 57.0736 89.4797 60.4807 89.875C60.0686 86.4836 58.5338 83.3477 56.0702 80.9074C53.6127 78.4671 50.4534 76.9571 47.0432 76.5618Z" fill="#FFDD24"/>
<path d="M61.7797 92.9604L61.8065 91.4356C61.8872 86.659 63.8042 82.1738 67.2024 78.8061C70.6036 75.4384 75.1186 73.551 79.9173 73.4974L81.4492 73.4796L81.4223 75.0044C81.3417 79.781 79.4246 84.2663 76.0264 87.634C72.6252 91.0017 68.1102 92.8891 63.3115 92.9456L61.7797 92.9604ZM78.3317 76.5619C74.9245 76.9573 71.7622 78.4672 69.3017 80.9075C66.8381 83.3478 65.3063 86.4837 64.8912 89.8751C68.2983 89.4798 71.4606 87.9699 73.9212 85.5295C76.3877 83.0892 77.9196 79.9534 78.3317 76.5619Z" fill="#FFDD24"/>
</svg>
