<svg width="44" height="44" viewBox="0 0 44 44" fill="none" xmlns="http://www.w3.org/2000/svg">
<path d="M31.0516 34.0411C30.9591 34.0411 30.8676 34.022 30.7828 33.985C30.6981 33.9479 30.6218 33.8938 30.559 33.826L25.1855 28.0116C25.0741 27.8796 25.018 27.7096 25.0287 27.5372C25.0395 27.3648 25.1163 27.2032 25.2432 27.086C25.3701 26.9687 25.5373 26.905 25.71 26.9079C25.8827 26.9108 26.0477 26.9803 26.1705 27.1017L30.3721 31.6482L30.3528 27.5606C30.3521 27.472 30.3689 27.3841 30.4023 27.3021C30.4357 27.22 30.4851 27.1454 30.5475 27.0826C30.6099 27.0197 30.6841 26.9698 30.7659 26.9358C30.8477 26.9018 30.9354 26.8843 31.024 26.8844C33.084 26.8844 35.0597 26.0661 36.5163 24.6094C37.973 23.1528 38.7914 21.1771 38.7914 19.1171C38.7914 17.0571 37.973 15.0814 36.5163 13.6247C35.0597 12.1681 33.084 11.3497 31.024 11.3497H13.1225C11.0625 11.3497 9.08683 12.1681 7.63017 13.6247C6.17351 15.0814 5.35517 17.0571 5.35517 19.1171C5.35517 21.1771 6.17351 23.1528 7.63017 24.6094C9.08683 26.0661 11.0625 26.8844 13.1225 26.8844H21.2493C21.4273 26.8844 21.5979 26.9551 21.7237 27.0809C21.8495 27.2067 21.9202 27.3774 21.9202 27.5553C21.9202 27.7332 21.8495 27.9038 21.7237 28.0297C21.5979 28.1555 21.4273 28.2262 21.2493 28.2262H13.1225C10.7066 28.2262 8.3897 27.2665 6.68142 25.5582C4.97313 23.8499 4.01343 21.533 4.01343 19.1171C4.01343 16.7012 4.97313 14.3843 6.68142 12.676C8.3897 10.9677 10.7066 10.008 13.1225 10.008H31.024C33.3812 10.0086 35.6463 10.9229 37.3434 12.5588C39.0406 14.1946 40.0375 16.4246 40.1248 18.7802C40.212 21.1357 39.3828 23.4334 37.8114 25.1903C36.2399 26.9472 34.0486 28.0266 31.698 28.2016L31.7225 33.3662C31.723 33.4546 31.7059 33.5422 31.6724 33.6239C31.6389 33.7057 31.5896 33.78 31.5272 33.8427C31.4649 33.9053 31.3908 33.955 31.3091 33.9889C31.2275 34.0228 31.14 34.0402 31.0516 34.0402V34.0411Z" fill="white"/>
<path d="M25.6781 28.2274H23.7844C23.6065 28.2274 23.4358 28.1567 23.31 28.0309C23.1842 27.9051 23.1135 27.7344 23.1135 27.5565C23.1135 27.3786 23.1842 27.2079 23.31 27.0821C23.4358 26.9563 23.6065 26.8856 23.7844 26.8856H25.6781C25.856 26.8856 26.0267 26.9563 26.1525 27.0821C26.2783 27.2079 26.349 27.3786 26.349 27.5565C26.349 27.7344 26.2783 27.9051 26.1525 28.0309C26.0267 28.1567 25.856 28.2274 25.6781 28.2274Z" fill="white"/>
<path d="M15.2407 21.6581C14.7384 21.6581 14.2473 21.5091 13.8296 21.23C13.4119 20.9509 13.0863 20.5542 12.894 20.0901C12.7018 19.6259 12.6515 19.1152 12.7495 18.6225C12.8475 18.1297 13.0894 17.6772 13.4447 17.3219C13.7999 16.9667 14.2525 16.7248 14.7452 16.6268C15.2379 16.5287 15.7487 16.5791 16.2128 16.7713C16.6769 16.9636 17.0736 17.2891 17.3527 17.7068C17.6318 18.1245 17.7808 18.6156 17.7808 19.118C17.7801 19.7915 17.5122 20.4371 17.036 20.9133C16.5598 21.3895 15.9142 21.6573 15.2407 21.6581ZM15.2407 17.92C15.0037 17.92 14.772 17.9903 14.575 18.122C14.3779 18.2537 14.2243 18.4408 14.1336 18.6598C14.0429 18.8788 14.0192 19.1198 14.0655 19.3522C14.1117 19.5847 14.2259 19.7982 14.3935 19.9658C14.5611 20.1333 14.7747 20.2475 15.0072 20.2937C15.2396 20.3399 15.4806 20.3161 15.6995 20.2253C15.9185 20.1346 16.1056 19.981 16.2373 19.7838C16.3689 19.5867 16.4391 19.355 16.4391 19.118C16.4387 18.8003 16.3124 18.4958 16.0877 18.2711C15.863 18.0465 15.5584 17.9203 15.2407 17.92Z" fill="white"/>
<path d="M22.0727 21.6581C21.5703 21.6581 21.0792 21.5091 20.6615 21.23C20.2438 20.9509 19.9182 20.5542 19.7259 20.0901C19.5337 19.6259 19.4834 19.1152 19.5814 18.6225C19.6794 18.1297 19.9213 17.6772 20.2766 17.3219C20.6318 16.9667 21.0844 16.7248 21.5771 16.6268C22.0698 16.5287 22.5806 16.5791 23.0447 16.7713C23.5088 16.9636 23.9055 17.2891 24.1846 17.7068C24.4637 18.1245 24.6127 18.6156 24.6127 19.118C24.612 19.7915 24.3441 20.4371 23.8679 20.9133C23.3917 21.3895 22.7461 21.6573 22.0727 21.6581ZM22.0727 17.92C21.8356 17.9199 21.6039 17.9902 21.4068 18.1218C21.2097 18.2535 21.056 18.4406 20.9653 18.6596C20.8746 18.8786 20.8508 19.1195 20.897 19.352C20.9433 19.5845 21.0574 19.7981 21.225 19.9657C21.3926 20.1333 21.6062 20.2474 21.8386 20.2936C22.0711 20.3399 22.3121 20.3161 22.5311 20.2254C22.75 20.1346 22.9372 19.981 23.0688 19.7839C23.2005 19.5868 23.2707 19.355 23.2707 19.118C23.2703 18.8004 23.144 18.4959 22.9194 18.2713C22.6948 18.0467 22.3903 17.9203 22.0727 17.92Z" fill="white"/>
<path d="M28.9059 21.6581C28.4035 21.6581 27.9124 21.5092 27.4946 21.2301C27.0769 20.9511 26.7512 20.5544 26.5589 20.0903C26.3667 19.6261 26.3163 19.1154 26.4143 18.6227C26.5123 18.1299 26.7541 17.6773 27.1094 17.322C27.4646 16.9668 27.9172 16.7248 28.4099 16.6268C28.9026 16.5287 29.4134 16.579 29.8775 16.7713C30.3417 16.9635 30.7384 17.2891 31.0175 17.7068C31.2967 18.1245 31.4456 18.6156 31.4456 19.118C31.4449 19.7914 31.1771 20.437 30.701 20.9132C30.2248 21.3894 29.5793 21.6573 28.9059 21.6581ZM28.9059 17.92C28.6688 17.9199 28.4371 17.9901 28.2399 18.1217C28.0428 18.2533 27.8891 18.4404 27.7983 18.6594C27.7075 18.8784 27.6837 19.1193 27.7299 19.3518C27.7761 19.5843 27.8902 19.7979 28.0578 19.9656C28.2254 20.1332 28.439 20.2474 28.6714 20.2936C28.9039 20.3399 29.1449 20.3161 29.3639 20.2254C29.5829 20.1347 29.7701 19.981 29.9017 19.7839C30.0334 19.5868 30.1036 19.3551 30.1036 19.118C30.1031 18.8005 29.9768 18.4961 29.7523 18.2715C29.5278 18.047 29.2234 17.9206 28.9059 17.92Z" fill="white"/>
</svg>
